<svg width="523" height="196" xmlns="http://www.w3.org/2000/svg" preserveAspectRatio="xMidYMid meet">
 <g>
  <title>background</title>
  <rect x="-1" y="-1" width="525" height="198" id="canvas_background" fill="none"/>
 </g>

 <g>
  <title>Layer 1</title>
  <g stroke="null" transform="translate(0,370) scale(0.10000000149011612,-0.10000000149011612) " fill="#000000" id="svg_1">
   <path stroke="null" stroke-width="0" d="m3786.105969,3528.383123c-31.847895,-51.624088 -77.344888,-124.17686 -101.609951,-163.243737c-24.265062,-37.671632 -133.457845,-213.472579 -244.167195,-390.668773c-110.70935,-175.800947 -207.769601,-329.277965 -215.352434,-337.649439c-12.132531,-13.952456 9.099399,-18.138193 98.576818,-18.138193l112.225916,0l62.179224,61.390807c33.364461,32.09065 65.212356,73.948017 71.278623,90.690965c4.549699,15.347702 21.23193,29.300158 36.397595,29.300158c15.165665,0 36.397595,9.766719 47.013559,20.928684c15.165665,16.742947 13.649098,20.928684 -7.582832,20.928684c-30.331329,0 -25.781629,16.742947 30.331329,96.271948c36.397595,54.414579 42.46386,57.20507 112.225916,57.20507c45.496993,0 77.344888,-6.976229 81.894587,-16.742947c6.066266,-13.952456 10.615966,-13.952456 27.298196,0c10.615966,8.371474 51.563258,16.742947 89.477419,16.742947c37.91416,0 77.344888,6.976229 87.960853,16.742947c13.649098,12.557211 18.198797,12.557211 18.198797,0c0,-9.766719 21.23193,-16.742947 51.563258,-16.742947c27.298196,0 57.629525,-8.371474 66.728923,-16.742947c18.198797,-22.32393 78.861455,-121.386369 78.861455,-129.757843c0,-4.185737 -87.960853,-6.976229 -195.637069,-6.976229c-163.789174,0 -197.153636,-4.185737 -204.736468,-22.32393c-7.582832,-19.533439 12.132531,-20.928684 162.272608,-19.533439c279.048223,5.580982 262.365993,8.371474 312.412684,-65.576543c25.781629,-36.276387 42.46386,-68.367035 39.430727,-71.157527c-3.033132,-2.790492 -156.206342,-4.185737 -342.744013,-4.185737c-238.100929,0 -341.227447,5.580982 -348.810279,16.742947c-12.132531,19.533439 -107.676216,-13.952456 -100.093384,-36.276387c3.033132,-8.371474 166.822308,-15.347702 441.320832,-18.138193l436.771132,-2.790492l-33.364461,51.624088c-18.198797,29.300158 -103.126517,163.243737 -186.537671,297.187317c-84.927721,133.943579 -159.239475,246.958474 -165.305741,248.353719c-6.066266,2.790492 -12.132531,11.161965 -12.132531,19.533439c0,19.533439 -230.518097,387.878281 -241.134063,387.878281c-4.549699,0 -34.881028,-41.857369 -65.212356,-94.876702l-0.000001,0.000001zm87.960853,-12.557211c59.14609,-87.900474 294.213887,-468.802527 291.180754,-471.593019c-9.099399,-8.371474 -69.762056,-9.766719 -244.167195,-8.371474l-178.954839,1.395245l50.046693,83.714737c27.298196,46.043106 54.596391,83.714737 60.662657,83.714737c6.066266,0 25.781629,-25.114421 42.46386,-57.20507c28.814762,-51.624088 74.311755,-69.76228 63.69579,-25.114421c-7.582832,26.509666 -100.093384,166.034228 -110.70935,166.034228c-4.549699,0 -28.814762,-33.485895 -53.079825,-75.343264c-24.265062,-40.462124 -112.225916,-181.381931 -195.637069,-313.930264l-151.656643,-238.587l-71.278623,0c-40.947294,0 -72.795188,2.790492 -72.795188,8.371474c0,9.766719 97.060252,178.591439 107.676216,186.962913c9.099399,6.976229 232.034664,358.578123 368.525642,581.817423c34.881028,55.809825 65.212356,101.85293 69.762056,101.85293c4.549699,0 15.165665,-11.161965 24.265062,-23.719176l0.000002,0z" id="svg_2"/>
   <path stroke="null" stroke-width="0" d="m3971.127073,3079.114034c0,-6.976229 7.582832,-13.952456 16.682231,-13.952456c7.582832,0 10.615966,6.976229 6.066266,13.952456c-4.549699,8.371474 -12.132531,13.952456 -16.682231,13.952456c-3.033132,0 -6.066266,-5.580982 -6.066266,-13.952456z" id="svg_3"/>
   <path stroke="null" stroke-width="0" d="m3843.735493,2932.613245c6.066266,-11.161965 15.165665,-16.742947 22.748497,-12.557211c21.23193,11.161965 15.165665,33.485895 -9.099399,33.485895c-13.649098,0 -18.198797,-8.371474 -13.649098,-20.928684z" id="svg_4"/>
   <path stroke="null" stroke-width="0" d="m3789.139102,2878.198666c-10.615966,-20.928684 -36.397595,-36.276387 -57.629525,-39.066877c-47.013559,-5.580982 -63.69579,-39.066877 -19.715363,-39.066877c28.814762,0 30.331329,-1.395245 4.549699,-40.462124c-13.649098,-22.32393 -19.715363,-46.043106 -12.132531,-53.019333c16.682231,-15.347702 72.795188,51.624088 63.69579,75.343264c-6.066266,12.557211 6.066266,18.138193 43.980427,18.138193c36.397595,0 53.079825,6.976229 53.079825,20.928684c0,11.161965 -6.066266,20.928684 -15.165665,20.928684c-7.582832,0 -15.165665,15.347702 -15.165665,34.88114c0,44.647859 -19.715363,44.647859 -45.496993,1.395245l0.000001,0z" id="svg_5"/>
   <path stroke="null" stroke-width="0" d="m3491.892081,2639.611665c-27.298196,-18.138193 -24.265062,-19.533439 39.430727,-19.533439c63.69579,0 66.728923,1.395245 39.430727,19.533439c-16.682231,11.161965 -34.881028,20.928684 -39.430727,20.928684c-4.549699,0 -22.748497,-9.766719 -39.430727,-20.928684z" id="svg_6"/>
   <path stroke="null" stroke-width="0" d="m2534.938664,2228.014208c-39.430727,-13.952456 -65.212356,-54.414579 -65.212356,-100.457685c0,-58.600316 33.364461,-82.319491 128.908146,-93.481456c106.159651,-11.161965 128.908146,-20.928684 128.908146,-57.20507c0,-54.414579 -43.980427,-73.948017 -147.106943,-65.576543c-74.311755,6.976229 -95.543685,4.185737 -95.543685,-9.766719c0,-26.509666 34.881028,-36.276387 122.841881,-36.276387c98.576818,0 159.239475,29.300158 172.888573,82.319491c18.198797,79.529001 -36.397595,126.967351 -147.106943,126.967351c-74.311755,0 -103.126517,18.138193 -103.126517,65.576543c0,46.043106 51.563258,64.181298 154.689777,55.809825c66.728923,-5.580982 87.960853,-2.790492 87.960853,11.161965c0,9.766719 -10.615966,22.32393 -24.265062,26.509666c-34.881028,12.557211 -174.40514,8.371474 -213.835867,-5.580982l-0.000001,0z" id="svg_7"/>
   <path stroke="null" stroke-width="0" d="m2894.364907,2053.608506l0,-188.358158l138.007545,0c103.126517,0 136.490979,4.185737 131.94128,18.138193c-4.549699,9.766719 -43.980427,18.138193 -107.676216,20.928684l-101.609951,4.185737l0,61.390807l0,62.786053l56.112958,0c53.079825,0 54.596391,1.395245 25.781629,20.928684c-15.165665,11.161965 -39.430727,20.928684 -51.563258,20.928684c-25.781629,0 -83.411154,131.153088 -68.245489,153.477018c4.549699,8.371474 1.516567,13.952456 -6.066266,13.952456c-10.615966,0 -16.682231,-65.576543 -16.682231,-188.358158z" id="svg_8"/>
   <path stroke="null" stroke-width="0" d="m2979.292628,2229.409453c-4.549699,-6.976229 1.516567,-16.742947 15.165665,-20.928684c36.397595,-12.557211 47.013559,-9.766719 57.629525,12.557211c6.066266,15.347702 -1.516567,20.928684 -28.814762,20.928684c-19.715363,0 -39.430727,-5.580982 -43.980427,-12.557211l-0.000001,0z" id="svg_9"/>
   <path stroke="null" stroke-width="0" d="m3296.255012,2190.342576c-4.549699,-29.300158 -13.649098,-114.410141 -16.682231,-188.358158c-6.066266,-131.153088 -6.066266,-136.73407 24.265062,-136.73407c28.814762,0 30.331329,6.976229 28.814762,132.548333c-1.516567,73.948017 0,136.73407 4.549699,140.919807c4.549699,2.790492 59.14609,-55.809825 119.808749,-132.548333c156.206342,-193.939141 165.305741,-191.14865 165.305741,47.438351c0,156.267509 -4.549699,188.358158 -22.748497,188.358158c-16.682231,0 -22.748497,-29.300158 -25.781629,-145.105544l-4.549699,-146.500789l-119.808749,146.500789c-65.212356,79.529001 -124.358447,145.105544 -130.424713,145.105544c-6.066266,0 -16.682231,-23.719176 -22.748497,-51.624088l0.000001,0z" id="svg_10"/>
   <path stroke="null" stroke-width="0" d="m3783.072835,2212.666505c-28.814762,-20.928684 -39.430727,-41.857369 -39.430727,-76.738509c0,-69.76228 43.980427,-103.248175 134.974412,-103.248175c110.70935,0 156.206342,-51.624088 92.510553,-104.643422c-24.265062,-20.928684 -45.496993,-23.719176 -121.325314,-16.742947c-71.278623,6.976229 -90.993986,5.580982 -90.993986,-9.766719c0,-26.509666 34.881028,-36.276387 127.39158,-36.276387c104.643084,0 160.756042,36.276387 160.756042,106.038667c0,68.367035 -43.980427,103.248175 -127.39158,103.248175c-94.027118,0 -115.259049,9.766719 -115.259049,57.20507c0,55.809825 43.980427,73.948017 154.689777,62.786053c51.563258,-4.185737 87.960853,-2.790492 87.960853,5.580982c0,48.833596 -200.186769,58.600316 -263.882558,12.557211l-0.000001,0.000001z" id="svg_11"/>
   <path stroke="null" stroke-width="0" d="m4169.797276,2053.608506l-1.516567,-188.358158l136.490979,0c113.742482,0 133.457845,2.790492 127.39158,20.928684c-7.582832,15.347702 -34.881028,20.928684 -113.742482,20.928684l-104.643084,0l0,62.786053l0,62.786053l106.159651,0c84.927721,0 106.159651,4.185737 106.159651,20.928684c0,16.742947 -21.23193,20.928684 -106.159651,20.928684l-106.159651,0l0,62.786053l0,62.786053l106.159651,0c84.927721,0 106.159651,4.185737 106.159651,20.928684c0,16.742947 -24.265062,20.928684 -127.39158,20.928684l-128.908146,0l0,-188.358158l-0.000001,-0.000003z" id="svg_12"/>
   <path stroke="null" stroke-width="0" d="m4729.410288,2053.608506c0,-178.591439 1.516567,-188.358158 30.331329,-188.358158c28.814762,0 30.331329,9.766719 30.331329,188.358158c0,178.591439 -1.516567,188.358158 -30.331329,188.358158c-28.814762,0 -30.331329,-9.766719 -30.331329,-188.358158z" id="svg_13"/>
   <path stroke="null" stroke-width="0" d="m4896.232596,2221.037979c0,-15.347702 16.682231,-20.928684 60.662657,-20.928684l60.662657,0l0,-167.429474c0,-160.453246 1.516567,-167.429474 31.847895,-167.429474c27.298196,0 30.331329,8.371474 28.814762,73.948017c-1.516567,39.066877 -1.516567,114.410141 -1.516567,167.429474l1.516567,93.481456l51.563258,0c31.847895,0 54.596391,8.371474 60.662657,20.928684c6.066266,18.138193 -15.165665,20.928684 -142.557244,20.928684c-124.358447,0 -151.656643,-4.185737 -151.656643,-20.928684z" id="svg_14"/>
  </g>
 </g>
</svg>