<?xml version="1.0" standalone="no"?>
<!DOCTYPE svg PUBLIC "-//W3C//DTD SVG 20010904//EN"
 "http://www.w3.org/TR/2001/REC-SVG-20010904/DTD/svg10.dtd">
<svg version="1.0" xmlns="http://www.w3.org/2000/svg"
 width="900.000000pt" height="370.000000pt" viewBox="0 0 900.000000 370.000000"
 preserveAspectRatio="xMidYMid meet">

<g transform="translate(0.000000,370.000000) scale(0.100000,-0.100000)"
fill="#000000" stroke="none">
<path d="M4468 2412 c-21 -37 -51 -89 -67 -117 -16 -27 -88 -153 -161 -280
-73 -126 -137 -236 -142 -242 -8 -10 6 -13 65 -13 l74 0 41 44 c22 23 43 53
47 65 3 11 14 21 24 21 10 0 24 7 31 15 10 12 9 15 -5 15 -20 0 -17 12 20 69
24 39 28 41 74 41 30 0 51 -5 54 -12 4 -10 7 -10 18 0 7 6 34 12 59 12 25 0
51 5 58 12 9 9 12 9 12 0 0 -7 14 -12 34 -12 18 0 38 -6 44 -12 12 -16 52 -87
52 -93 0 -3 -58 -5 -129 -5 -108 0 -130 -3 -135 -16 -5 -14 8 -15 107 -14 184
4 173 6 206 -47 17 -26 28 -49 26 -51 -2 -2 -103 -3 -226 -3 -157 0 -225 4
-230 12 -8 14 -71 -10 -66 -26 2 -6 110 -11 291 -13 l288 -2 -22 37 c-12 21
-68 117 -123 213 -56 96 -105 177 -109 178 -4 2 -8 8 -8 14 0 14 -152 278
-159 278 -3 0 -23 -30 -43 -68z m58 -9 c39 -63 194 -336 192 -338 -6 -6 -46
-7 -161 -6 l-118 1 33 60 c18 33 36 60 40 60 4 0 17 -18 28 -41 19 -37 49 -50
42 -18 -5 19 -66 119 -73 119 -3 0 -19 -24 -35 -54 -16 -29 -74 -130 -129
-225 l-100 -171 -47 0 c-27 0 -48 2 -48 6 0 7 64 128 71 134 6 5 153 257 243
417 23 40 43 73 46 73 3 0 10 -8 16 -17z"/>
<path d="M4590 2090 c0 -5 5 -10 11 -10 5 0 7 5 4 10 -3 6 -8 10 -11 10 -2 0
-4 -4 -4 -10z"/>
<path d="M4506 1985 c4 -8 10 -12 15 -9 14 8 10 24 -6 24 -9 0 -12 -6 -9 -15z"/>
<path d="M4470 1946 c-7 -15 -24 -26 -38 -28 -31 -4 -42 -28 -13 -28 19 0 20
-1 3 -29 -9 -16 -13 -33 -8 -38 11 -11 48 37 42 54 -4 9 4 13 29 13 24 0 35 5
35 15 0 8 -4 15 -10 15 -5 0 -10 11 -10 25 0 32 -13 32 -30 1z"/>
<path d="M4274 1775 c-18 -13 -16 -14 26 -14 42 0 44 1 26 14 -11 8 -23 15
-26 15 -3 0 -15 -7 -26 -15z"/>
<path d="M3643 1480 c-26 -10 -43 -39 -43 -72 0 -42 22 -59 85 -67 70 -8 85
-15 85 -41 0 -39 -29 -53 -97 -47 -49 5 -63 3 -63 -7 0 -19 23 -26 81 -26 65
0 105 21 114 59 12 57 -24 91 -97 91 -49 0 -68 13 -68 47 0 33 34 46 102 40
44 -4 58 -2 58 8 0 7 -7 16 -16 19 -23 9 -115 6 -141 -4z"/>
<path d="M3880 1355 l0 -135 91 0 c68 0 90 3 87 13 -3 7 -29 13 -71 15 l-67 3
0 44 0 45 37 0 c35 0 36 1 17 15 -10 8 -26 15 -34 15 -17 0 -55 94 -45 110 3
6 1 10 -4 10 -7 0 -11 -47 -11 -135z"/>
<path d="M3936 1481 c-3 -5 1 -12 10 -15 24 -9 31 -7 38 9 4 11 -1 15 -19 15
-13 0 -26 -4 -29 -9z"/>
<path d="M4145 1453 c-3 -21 -9 -82 -11 -135 -4 -94 -4 -98 16 -98 19 0 20 5
19 95 -1 53 0 98 3 101 3 2 39 -40 79 -95 103 -139 109 -137 109 34 0 112 -3
135 -15 135 -11 0 -15 -21 -17 -104 l-3 -105 -79 105 c-43 57 -82 104 -86 104
-4 0 -11 -17 -15 -37z"/>
<path d="M4466 1469 c-19 -15 -26 -30 -26 -55 0 -50 29 -74 89 -74 73 0 103
-37 61 -75 -16 -15 -30 -17 -80 -12 -47 5 -60 4 -60 -7 0 -19 23 -26 84 -26
69 0 106 26 106 76 0 49 -29 74 -84 74 -62 0 -76 7 -76 41 0 40 29 53 102 45
34 -3 58 -2 58 4 0 35 -132 42 -174 9z"/>
<path d="M4721 1355 l-1 -135 90 0 c75 0 88 2 84 15 -5 11 -23 15 -75 15 l-69
0 0 45 0 45 70 0 c56 0 70 3 70 15 0 12 -14 15 -70 15 l-70 0 0 45 0 45 70 0
c56 0 70 3 70 15 0 12 -16 15 -84 15 l-85 0 0 -135z"/>
<path d="M5090 1355 c0 -128 1 -135 20 -135 19 0 20 7 20 135 0 128 -1 135
-20 135 -19 0 -20 -7 -20 -135z"/>
<path d="M5200 1475 c0 -11 11 -15 40 -15 l40 0 0 -120 c0 -115 1 -120 21
-120 18 0 20 6 19 53 -1 28 -1 82 -1 120 l1 67 34 0 c21 0 36 6 40 15 4 13
-10 15 -94 15 -82 0 -100 -3 -100 -15z"/>
</g>
</svg>
