<?xml version="1.0" standalone="no"?>
<!DOCTYPE svg PUBLIC "-//W3C//DTD SVG 20010904//EN"
 "http://www.w3.org/TR/2001/REC-SVG-20010904/DTD/svg10.dtd">
<svg version="1.0" xmlns="http://www.w3.org/2000/svg"
 width="300.000000pt" height="124.000000pt" viewBox="0 0 300.000000 124.000000"
 preserveAspectRatio="xMidYMid meet">
<metadata>
Created by potrace 1.10, written by Peter Selinger 2001-2011
</metadata>
<g transform="translate(0.000000,124.000000) scale(0.050000,-0.050000)"
fill="#fffefe" stroke="none">
<path d="M5162 2295 c-10 -25 -51 -126 -92 -225 -192 -467 -356 -861 -447
-1080 l-100 -240 -2002 -5 c-1707 -4 -2001 -9 -2001 -33 0 -44 -78 -43 2044
-32 l2003 10 143 350 c256 628 406 988 469 1125 33 74 61 143 61 155 0 39 -61
20 -78 -25z"/>
<path d="M4613 2025 c-9 -14 -21 -836 -13 -915 1 -11 42 90 91 225 89 244 90
248 85 470 l-6 225 -73 6 c-40 3 -78 -2 -84 -11z"/>
<path d="M1040 2013 c0 -4 -41 -205 -91 -445 -87 -420 -118 -556 -143 -620 -9
-25 8 -29 96 -24 l108 6 6 105 6 105 128 0 127 0 17 -105 16 -105 98 -6 c92
-6 97 -4 86 40 -6 25 -58 273 -117 551 l-107 505 -115 0 c-63 0 -115 -3 -115
-7z m199 -698 c1 -8 -40 -15 -90 -15 -79 0 -90 5 -80 35 6 20 23 118 38 217
40 270 56 271 96 8 20 -127 36 -237 36 -245z"/>
<path d="M1640 1468 l0 -551 232 6 c325 10 308 -19 308 538 0 574 9 559 -339
559 l-201 0 0 -552z m355 -3 l6 -365 -91 0 -90 0 0 371 0 371 85 -6 85 -6 5
-365z"/>
<path d="M2552 1996 c-4 -14 -32 -152 -62 -306 -51 -264 -138 -658 -162 -735
-9 -30 3 -35 89 -35 l100 0 14 110 14 110 126 0 126 0 14 -110 14 -110 100 0
c94 0 99 3 86 45 -7 25 -60 270 -118 545 l-105 500 -114 6 c-81 4 -117 -2
-122 -20z m160 -393 c13 -84 30 -187 38 -228 l14 -75 -94 0 c-88 0 -94 3 -83
45 6 25 21 113 33 195 42 295 57 305 92 63z"/>
<path d="M3200 1469 l0 -551 93 6 93 6 -4 185 -4 185 129 0 c212 0 223 17 223
350 l0 273 -56 49 c-52 44 -73 48 -265 48 l-209 0 0 -551z m356 221 c9 -207
-1 -230 -96 -230 l-80 0 0 191 0 191 85 -6 85 -6 6 -140z"/>
<path d="M3900 1930 l0 -90 91 0 90 0 -2 -455 -2 -455 91 -6 92 -6 0 461 0
461 90 0 90 0 0 90 0 90 -270 0 -270 0 0 -90z"/>
<path d="M5164 1965 c-11 -30 -26 -70 -34 -89 -11 -27 1 -35 63 -40 l77 -6 6
-320 c7 -405 6 -410 -96 -410 -103 0 -110 26 -93 377 15 311 6 313 -95 27 -87
-249 -100 -456 -33 -523 86 -86 358 -80 436 10 67 77 70 892 4 976 -62 79
-206 77 -235 -2z"/>
<path d="M5823 1549 c-13 -30 -20 -59 -14 -64 5 -6 18 10 27 36 l17 46 13 -48
c7 -26 18 -42 25 -35 7 7 0 36 -16 65 l-27 54 -25 -54z"/>
<path d="M620 400 l0 -140 79 0 c99 0 141 41 141 138 0 95 -49 142 -147 142
l-73 0 0 -140z m164 50 c29 -65 -6 -150 -64 -150 -35 0 -40 13 -40 100 0 115
61 145 104 50z"/>
<path d="M1840 400 c0 -80 9 -140 20 -140 11 0 20 60 20 140 0 80 -9 140 -20
140 -11 0 -20 -60 -20 -140z"/>
<path d="M3959 532 c-17 -16 5 -272 23 -272 10 0 18 54 18 120 0 66 1 127 2
135 1 17 -31 30 -43 17z"/>
<path d="M4220 520 c0 -11 18 -20 40 -20 36 0 40 -13 40 -120 0 -93 7 -120 30
-120 23 0 30 27 30 120 0 107 4 120 40 120 22 0 40 9 40 20 0 11 -49 20 -110
20 -60 0 -110 -9 -110 -20z"/>
<path d="M2897 485 c-25 -112 12 -215 78 -221 l65 -7 0 103 c0 74 -7 101 -25
95 -14 -5 -22 -25 -19 -45 11 -56 -15 -133 -39 -118 -13 8 -17 46 -11 93 15
111 -28 198 -49 100z"/>
<path d="M880 412 c0 -34 -6 -82 -13 -107 -8 -33 -3 -45 21 -45 24 0 32 20 32
80 0 58 8 80 30 80 22 0 30 -22 30 -80 0 -58 8 -80 30 -80 47 0 43 199 -5 203
-19 1 -55 4 -80 7 -38 4 -45 -5 -45 -58z"/>
<path d="M1066 425 c37 -184 91 -212 134 -70 l29 95 6 -95 c5 -67 16 -95 36
-95 53 0 28 182 -27 203 -46 16 -50 12 -88 -103 -7 -20 -21 -4 -42 45 -37 88
-64 99 -48 20z"/>
<path d="M1355 466 c-46 -12 -52 -206 -6 -206 19 0 31 27 35 85 3 47 15 85 26
85 11 0 23 -38 26 -85 8 -115 64 -120 64 -6 0 112 -46 153 -145 127z"/>
<path d="M1552 449 c-64 -64 -29 -189 53 -189 21 0 32 -9 25 -20 -7 -11 -36
-14 -64 -7 -38 9 -49 6 -42 -15 39 -117 167 -14 166 134 0 126 -64 171 -138
97z m84 -94 c-4 -42 -17 -65 -36 -65 -19 0 -32 23 -36 65 -6 55 0 65 36 65 36
0 42 -10 36 -65z"/>
<path d="M1955 466 c-47 -12 -52 -206 -5 -206 22 0 30 22 30 80 0 58 8 80 30
80 22 0 30 -22 30 -80 0 -55 9 -80 28 -80 22 0 26 20 17 85 -15 125 -38 145
-130 121z"/>
<path d="M2129 462 c-18 -17 -9 -202 10 -202 10 0 21 34 25 75 9 113 76 119
76 6 0 -56 9 -81 28 -81 32 0 22 151 -13 195 -18 22 -106 28 -126 7z"/>
<path d="M2328 430 c-62 -94 19 -202 121 -163 81 31 39 213 -49 213 -21 0 -54
-22 -72 -50z m119 -40 c18 -45 -7 -90 -49 -90 -29 0 -38 14 -38 60 0 66 65 88
87 30z"/>
<path d="M2514 466 c-19 -30 45 -206 75 -206 20 0 77 131 80 185 3 44 -42 6
-57 -50 l-17 -65 -34 79 c-18 43 -40 69 -47 57z"/>
<path d="M2724 456 c-41 -41 -27 -55 41 -44 l65 10 -63 -29 c-119 -55 -110
-133 15 -133 l78 0 0 86 c0 90 -26 134 -80 134 -18 0 -43 -11 -56 -24z m96
-114 c0 -9 -13 -28 -28 -41 -32 -26 -64 4 -42 39 15 25 70 27 70 2z"/>
<path d="M3093 443 c-87 -96 32 -250 123 -159 34 34 30 127 -7 165 -42 41 -75
39 -116 -6z m103 -78 c-7 -61 -69 -87 -88 -36 -19 48 6 91 53 91 34 0 40 -10
35 -55z"/>
<path d="M3268 462 c-25 -25 -6 -202 22 -202 22 0 30 22 30 80 0 58 8 80 30
80 22 0 30 -22 30 -80 0 -58 8 -80 30 -80 38 0 42 165 5 196 -24 19 -129 24
-147 6z"/>
<path d="M3573 466 c-29 -28 -14 -206 17 -206 23 0 30 24 30 99 0 93 -19 136
-47 107z"/>
<path d="M3649 462 c-26 -25 -7 -202 21 -202 22 0 30 22 30 80 0 58 8 80 30
80 22 0 30 -22 30 -80 0 -58 8 -80 30 -80 39 0 42 165 3 198 -25 21 -125 24
-144 4z"/>
<path d="M4060 440 c-72 -72 -31 -180 67 -180 92 0 129 122 56 187 -47 43 -74
42 -123 -7z m107 -50 c16 -41 -5 -90 -40 -90 -15 0 -33 14 -40 30 -16 41 6 90
40 90 16 0 34 -13 40 -30z"/>
</g>
</svg>
